<svg xmlns="http://www.w3.org/2000/svg" viewBox="0 0 512 512">
  <defs>
    <linearGradient id="grad" x1="0%" y1="0%" x2="100%" y2="100%">
      <stop offset="0%" style="stop-color:#06b6d4;stop-opacity:1" />
      <stop offset="100%" style="stop-color:#3b82f6;stop-opacity:1" />
    </linearGradient>
  </defs>
  <path d="M256,0C240.5,0,224,3.2,208.8,11.2c-1.3,0.7-52,28.2-120.5,65.5C36.8,104.7,0,124.9,0,132.5v120 c0,154.5,123.6,222.4,248.3,258.4c2.5,0.7,5.1,1.1,7.7,1.1s5.2-0.4,7.7-1.1c124.7-36,248.3-103.9,248.3-258.4v-120 c0-7.6-36.8-27.8-88.3-55.8C355.2,39.4,304.5,11.9,303.2,11.2C288,3.2,271.5,0,256,0z" fill="url(#grad)"/>
  <path d="M369.8,187.6l-141.3,141.3c-6.2,6.2-16.4,6.2-22.6,0l-70.6-70.6c-6.2-6.2-6.2-16.4,0-22.6c6.2-6.2,16.4-6.2,22.6,0l59.4,59.4 l130-130c6.2-6.2,16.4-6.2,22.6,0C376.1,171.2,376.1,181.4,369.8,187.6z" fill="#ffffff"/>
</svg>
